<svg width="1000" height="946" version="1.1" xmlns="http://www.w3.org/2000/svg" desc="Created with imagetracer.js version 1.2.5"><path d="M 56.5 21 L 62 23.5 L 61 36.5 L 57.5 40 Q 53.8 40.8 53 38.5 Q 54.2 36 58 37 L 56.5 34 Q 51.1 35.9 52 32.5 Q 49.8 31.3 51 26.5 L 53.5 22 L 56.5 21 Z "></path><path d="M 617.5 73 L 628.5 75 L 632 78.5 L 636 87.5 L 636 95.5 Q 632.5 112.5 622.5 123 L 619.5 124 L 601.5 124 Q 600 121.5 594.5 123 L 588.5 120 L 582 113.5 L 579 106.5 L 579 101.5 Q 580.8 94.3 586.5 91 L 593.5 88 L 602.5 87 L 604 85.5 Q 605.8 78.3 611.5 75 L 617.5 73 Z M 619 77 L 615 79 Q 608 82 607 91 L 605 93 Q 593 91 589 95 L 584 102 Q 583 109 586 112 L 595 118 L 607 119 L 608 120 Q 616 122 620 119 L 625 113 L 631 97 L 631 86 L 630 84 Q 627 77 619 77 Z "></path><path d="M 464.5 89 L 475.5 89 L 487.5 95 L 497.5 90 L 506.5 90 L 517 96.5 Q 521 100 520 108.5 Q 516 121 506.5 128 L 484.5 140 Q 466.8 133.8 456 120.5 L 453 114.5 L 453 99.5 L 458.5 92 L 464.5 89 Z M 466 93 L 464 94 Q 457 97 456 106 Q 456 113 460 118 Q 469 129 483 135 Q 495 132 503 125 L 513 115 L 515 110 Q 516 103 513 100 L 506 94 L 500 94 L 488 102 L 486 102 L 484 100 Q 479 92 466 93 Z "></path><path d="M 353.5 108 L 361.5 109 L 368 113.5 Q 372.4 119.6 371 131.5 L 366 147.5 L 359.5 156 Q 351.5 161 336.5 159 L 322.5 154 L 317 148.5 Q 313.9 144.1 315 135.5 L 320.5 127 L 328.5 123 L 337.5 122 L 340 119.5 L 345.5 111 L 353.5 108 Z M 351 113 Q 344 119 342 128 L 328 128 L 325 130 L 319 137 L 320 145 L 327 151 L 340 155 Q 349 157 355 154 L 361 147 L 367 130 Q 368 121 364 117 L 361 113 L 351 113 Z "></path><path d="M 729.5 131 L 739.5 132 L 746 137.5 L 750.5 145 L 762.5 147 L 769 151.5 Q 773.7 155.3 772 165.5 L 766.5 174 L 757.5 179 L 732.5 179 Q 725.1 172.9 722 162.5 L 719 153.5 L 719 144.5 Q 720.8 136.3 726.5 132 L 729.5 131 Z M 733 135 L 730 136 L 724 144 Q 722 167 736 176 L 749 176 L 762 172 L 768 164 Q 769 157 766 155 L 761 150 L 749 148 L 743 140 Q 741 134 733 135 Z "></path><path d="M 582.5 146 L 595.5 150 L 601 153.5 L 601 162.5 L 598.5 170 L 598 155 L 582.5 151 L 564 169.5 L 564 191 L 577 193 L 575.5 196 L 560.5 196 L 558 195 L 561 178.5 L 561 167.5 L 580.5 147 L 582.5 146 Z "></path><path d="M 422.5 174 L 425 175.5 L 424 184.5 L 442.5 192 Q 454 190.5 460.5 194 L 476.5 194 L 485.5 192 L 501.5 191 L 502.5 192 L 510.5 192 L 511.5 191 L 519.5 191 L 521 193.5 L 516.5 196 L 487.5 196 L 460.5 201 L 436.5 195 L 415.5 192 L 407.5 186 L 404.5 189 L 388.5 191 L 387 187 L 397.5 185 L 419 185 L 420 177.5 L 422.5 174 Z "></path><path d="M 522 174 L 526 175.5 L 529 186.5 L 532.5 190 Q 538.7 190.7 540 186.5 L 543.5 179 L 545 179.5 L 545 188.5 L 552 192.5 L 550.5 196 L 527.5 196 L 526 194.5 L 526 189.5 L 522 174 Z "></path><path d="M 378.5 186 L 382 188.5 L 383 191.5 L 379.5 194 L 366.5 198 L 355 207.5 L 347 223.5 L 346 235.5 L 348 246.5 L 351 253.5 L 351 257.5 L 341 280.5 L 338 293.5 L 338 307.5 Q 341.8 328.7 355.5 340 L 369 352.5 Q 358.7 370.2 352 391.5 L 349 406.5 L 349 416 Q 357.3 414.7 361 417 L 359.5 420 L 348.5 421 L 345 418.5 L 345 405.5 L 349 385.5 L 363 352.5 L 348 339.5 Q 332.3 324.2 334 291.5 L 337 277.5 L 346 258.5 L 347 252.5 L 344 244.5 L 344 237.5 L 340 227.5 L 340 223.5 Q 343.5 207 354.5 198 Q 364.2 189.7 378.5 186 Z "></path><path d="M 695.5 186 L 714 187 L 716 194 L 709.5 193 L 687.5 193 L 686.5 194 L 675.5 195 L 674 191.5 L 675 189 L 681.5 187 L 694.5 187 L 695.5 186 Z "></path><path d="M 721.5 190 Q 731.6 193.9 738 201.5 L 746 214.5 L 750 228.5 L 752.5 231 Q 764.9 234.6 772 243.5 L 771 246 Q 774.3 247.3 773 242.5 L 785.5 231 L 791.5 228 L 805.5 224 L 821.5 223 L 822.5 224 L 831.5 224 L 841.5 226 L 847.5 228 L 850 230.5 Q 849.2 233.1 852.5 232 L 857 224.5 L 857 220.5 L 855 217.5 Q 856.3 214.8 857.5 217 L 860 218.5 Q 862.6 219.9 862 224.5 L 858 228.5 L 858 230.5 Q 860.1 234.9 866.5 235 Q 869 230.7 876 232 L 872.5 237 Q 870.3 236.3 871 238.5 Q 884.2 250.3 892 267.5 L 896 282.5 L 896 303.5 L 891 322.5 Q 887.1 333.6 879.5 341 Q 876.6 343.6 870.5 343 L 863.5 349 L 851.5 352 L 847 356.5 L 844.5 362 Q 835.1 364.1 830 370.5 L 828.5 373 L 823.5 372 L 807.5 372 L 792.5 369 L 784.5 366 L 783 367.5 L 782 375.5 L 779.5 379 Q 775.8 378.3 775 380.5 Q 777.8 382.2 777 387.5 Q 772.7 398.2 765 405.5 L 762 412.5 Q 766.1 415.4 765 423.5 L 765 425.5 L 765 428.5 L 770.5 434 Q 777.3 435.8 779 432.5 Q 777.1 421.1 782.5 417 L 784 418.5 L 785 425.5 L 784 428.5 L 785 433 Q 791.3 434.5 793 430.5 L 794 423 Q 798.9 421.2 797 427.5 L 798 433 L 801.5 432 L 828.5 431 L 835 434.5 L 833.5 437 Q 828 436 827 439.5 L 827 444.5 L 836 453.5 L 836 457.5 L 830 467.5 L 841 486.5 Q 836.6 494.1 836 505.5 L 846.5 515 Q 851 510.9 860.5 512 L 864.5 514 L 879 515 L 877 500.5 Q 879 497 881 501.5 L 883 513 L 889 513 L 889 506.5 L 888 505.5 L 888 496 L 891 497.5 Q 894.3 504.7 893 516.5 L 892 519 Q 883.5 522.6 868.5 521 L 861.5 519 L 852.5 519 L 814.5 532 L 810.5 532 L 801.5 535 L 795.5 535 L 792 538.5 L 786 561.5 L 786 580.5 L 788 591.5 L 789 630.5 L 788 634 L 795.5 635 L 805.5 623 L 807.5 622 L 809 624.5 Q 805.3 633.3 798.5 639 L 791.5 639 L 786.5 642 L 781 643 L 781 593.5 L 780 592.5 L 778 565.5 L 785 534.5 L 787.5 530 L 802.5 529 Q 823.8 524.3 842 516.5 L 832 506.5 L 832 502.5 L 837 486.5 L 825 468.5 L 825 466.5 L 831 455.5 L 822 445.5 L 822 441.5 L 823 437 L 767.5 441 L 763 437.5 L 758 430.5 L 757 425.5 L 762 417.5 L 762 415 Q 758.2 415.8 757 412.5 L 755.5 410 L 753 409.5 L 762 402.5 Q 769.1 394.6 773 383.5 L 776 367.5 L 776 348.5 L 775 347.5 L 774 335.5 L 772 330.5 Q 790 318.5 788 286.5 L 785 271.5 Q 780.1 266.4 779 257.5 L 765.5 243 Q 759 235 747.5 232 L 756 241.5 L 772 263.5 L 777 278.5 L 779 297.5 L 776 314.5 Q 771.4 324.9 763.5 332 L 749 341.5 L 753 352.5 L 755 369.5 L 756 370.5 L 756 394.5 L 741 403.5 L 741 432.5 L 740 433.5 L 739 452.5 L 738 453.5 L 736 472.5 L 729 502.5 L 717 531.5 Q 707.4 547.4 693.5 559 L 674.5 571 L 660 574 L 662.5 578 Q 685.8 588.7 701 607.5 L 713 627.5 L 716 636.5 L 716 643.5 Q 715.3 646.8 710.5 646 L 702 644 L 707 667.5 L 707 705.5 L 706 706.5 L 706 715.5 L 704 726.5 L 697 748.5 Q 685.6 775.1 665.5 793 Q 645.9 807.9 620.5 817 L 592.5 822 L 584.5 822 L 583.5 823 L 565.5 824 L 559 825.5 L 569.5 826 L 570.5 825 L 580.5 825 L 581.5 824 L 589.5 824 L 590.5 823 L 611.5 821 L 636.5 816 Q 652.3 804.8 671.5 797 L 691.5 783 L 692 784.5 L 679 795.5 Q 677.7 799.7 682.5 798 L 697 793 L 694.5 797 L 684.5 801 L 675.5 801 L 667.5 804 L 648.5 813 L 641 818.5 L 643.5 841 L 654.5 835 L 659.5 835 L 668.5 838 L 687.5 826 L 695.5 824 L 708.5 824 L 715.5 826 L 723.5 832 L 725.5 832 L 731 823.5 L 739 800.5 L 741 789.5 L 742 771.5 L 740 762.5 L 737 757.5 L 737 753.5 L 743 745 L 746.5 743 L 750 743 L 751 739.5 L 749 736.5 L 757 720.5 L 740 707.5 L 743.5 707 L 759.5 715 L 762 712.5 L 764 705.5 L 734 686.5 Q 733.1 683.5 737.5 685 L 751.5 694 L 763.5 700 L 767 700 L 771 687.5 L 760 680.5 Q 759.1 677.1 764.5 679 Q 767.3 682.4 774 681 L 774 678.5 L 780 672.5 Q 776 670.5 778 662.5 L 780 651.5 L 782.5 648 Q 786.3 646.8 785 650.5 L 781 653.5 Q 782.3 656.3 783.5 654 L 790.5 653 L 795.5 654 L 800 657.5 L 806 667.5 L 804.5 669 L 800 664.5 L 795.5 658 Q 792.8 655.2 786.5 656 L 783 662.5 L 781 679.5 L 772 706.5 L 758 734.5 L 743 753.5 L 743 758.5 L 747 771.5 L 744 777.5 Q 750.3 779.8 748 790.5 L 745 797.5 L 748.5 798 Q 749.8 795.8 754.5 797 Q 757.5 798.5 754.5 800 L 745 804.5 Q 742.4 807.4 743 813.5 L 750 818.5 Q 750.5 821.5 743.5 820 L 741.5 820 L 739 821.5 Q 736 825.8 737 833 Q 747.2 836.1 753 844.5 Q 757.7 851.3 759 861.5 Q 758.1 868.1 753.5 871 L 748.5 873 L 643.5 873 Q 638.4 870.6 637 864.5 L 635 824.5 L 632.5 821 L 604.5 826 L 577.5 828 L 576.5 829 L 523.5 831 L 522.5 832 L 475.5 832 L 474.5 831 L 448.5 830 L 447.5 829 L 422.5 827 L 421.5 826 L 409.5 826 L 407 829.5 L 407 861.5 Q 406.1 868.1 401.5 871 L 393.5 873 L 299.5 873 Q 297.8 870.3 291.5 872 L 286 867.5 L 284 859.5 Q 286.5 845 296.5 838 L 307 831.5 L 298 804.5 L 295 788.5 Q 296.5 779 294 773.5 L 283 761.5 Q 280.3 759.2 281 753.5 L 277.5 749 L 275.5 749 L 271 744.5 Q 271.8 742.3 269.5 743 L 255.5 749 L 252.5 752 L 240 758.5 Q 245.8 764.2 246 775.5 L 245 779 L 242 777.5 Q 241.3 766.3 235.5 760 L 223.5 763 L 220 765.5 L 219.5 776 L 217 772.5 L 216 766 L 175.5 777 L 124.5 778 L 123.5 777 L 110.5 776 L 86.5 769 Q 63.8 758.7 47 742.5 Q 35 729 29 709.5 L 27 699.5 L 27 680.5 Q 31.6 653.1 49.5 639 Q 59.7 629.2 74.5 624 L 92.5 620 L 113.5 620 Q 144 625.5 159 646.5 L 166 660.5 L 166 672.5 L 157.5 684 Q 154.5 687 147.5 686 Q 140.1 683.9 136 678.5 L 133 670.5 L 127.5 664 Q 116 652 90.5 654 L 80.5 658 L 67 669.5 L 61 681.5 L 61 696.5 Q 64.6 712.4 75.5 721 Q 87.8 730.7 103.5 737 L 111 738 L 114.5 731 L 117 734.5 L 115 738.5 L 118.5 741 L 129.5 742 L 130.5 743 L 161.5 743 L 162.5 742 L 169.5 742 L 185.5 739 L 208.5 733 Q 231.3 725.3 250.5 714 L 255.5 713 L 255 714.5 L 250.5 720 L 229.5 730 L 181.5 745 L 176.5 745 L 169.5 747 L 161.5 747 L 160.5 748 L 133.5 748 L 132.5 747 L 124.5 747 L 113.5 745 L 97.5 740 L 82.5 732 L 67 718.5 L 59 705.5 L 57 696.5 L 57 679.5 Q 60.5 666 70.5 659 L 86.5 650 L 110.5 650 L 111.5 649 L 126.5 658 L 136 667.5 Q 136.9 674.1 141.5 677 Q 145.5 681 153.5 681 L 160 675.5 Q 163.5 671.5 162 662.5 Q 156.8 647.2 144.5 639 L 127 629 L 127 642.5 L 125.5 644 L 114.5 645 Q 113.2 642.8 108.5 644 L 106 641.5 L 107.5 640 L 116.5 640 L 123 641 L 122 629.5 L 119.5 627 L 111.5 625 L 93.5 625 L 82.5 627 L 71.5 631 L 60.5 637 L 45 650.5 Q 32.4 665.9 31 692.5 L 33.5 697 L 47 696 L 45.5 700 L 33 702 L 34 708.5 L 37.5 713 L 42.5 712 L 45 713 Q 46.1 715.7 43.5 715 L 38 717 Q 44.6 734.3 57.5 746 Q 74.6 761.4 99.5 769 L 123.5 774 L 150.5 775 L 151.5 774 L 161.5 774 L 162.5 773 L 176.5 772 L 213.5 763 L 267 740 L 267 736.5 L 260 721.5 L 260 711.5 L 257.5 709 Q 253.5 709.5 253 706.5 L 249 684.5 L 248 655.5 L 249 654.5 L 250 642.5 L 256 623.5 L 248 607 L 237.5 614 L 236 610.5 L 245 602.5 L 242 591 Q 228 592.7 219 588.5 L 224.5 586 L 240 586 L 235 556.5 L 234 537.5 L 231.5 531 L 221.5 529 L 209.5 524 L 205.5 524 L 191.5 520 L 173.5 512 L 167.5 512 L 155.5 515 L 145.5 515 L 144.5 514 L 133.5 513 L 120.5 508 L 111.5 508 L 94.5 511 L 75.5 511 L 70.5 510 L 66 505.5 Q 62.4 498.6 64 486.5 L 69.5 479 L 79.5 476 L 78.5 478 L 70 484.5 Q 67 488.5 68 496.5 Q 68.9 503.1 73.5 506 L 76.5 507 L 91.5 507 L 108.5 504 L 121.5 504 L 132.5 509 Q 135.1 503.1 134 493.5 L 136.5 491 L 139 492.5 L 135 507.5 L 147.5 512 L 163.5 509 L 170.5 506 L 171 509 L 181.5 508 L 186.5 510 L 189 509 L 191 502.5 L 186 485.5 L 196 469.5 L 196 465.5 L 192 458.5 L 192 453.5 L 201 443.5 L 201 440.5 L 196.5 432 L 189.5 431 L 188 429.5 Q 185.1 419.9 178.5 414 L 172 408.5 Q 173.5 404.1 170.5 405 L 165 401.5 L 164 390.5 L 158.5 379 Q 155.2 375.8 147.5 377 L 137.5 379 L 135 381.5 L 131 391.5 L 130 401.5 L 128.5 403 Q 124.3 401.3 126 393.5 L 132 378.5 L 135.5 375 Q 142.4 369.9 154.5 370 Q 161.3 371.3 165 375.5 L 168 383.5 L 169 398.5 L 174.5 404 Q 183.9 407.6 189 415.5 L 194.5 424 L 200 426.5 L 205 444.5 L 196 456.5 Q 201.2 459.8 201 468.5 L 192 483.5 L 191 487.5 L 196 502.5 L 196 506.5 L 190.5 513 Q 197.8 512.7 201 516.5 L 202 521 L 204.5 522 Q 205 518.5 209.5 519 L 217 522.5 L 218.5 526 L 225.5 523 L 231.5 523 L 247.5 526 L 271.5 527 L 280.5 523 L 285 523 L 282.5 527 L 276 529 L 277 535.5 L 281 541.5 L 282 547 L 275 541.5 L 268.5 532 L 248.5 532 L 247.5 533 L 241 533 L 242 557.5 L 248 587.5 L 253 602.5 L 264 623.5 L 262 626.5 L 256 647.5 Q 257.3 652.3 255 653.5 L 255 675.5 L 256 676.5 L 257 690.5 L 256 691.5 L 256 703.5 L 263 714.5 L 266 722.5 L 266 728 L 283.5 715 L 290 713 L 289 717 Q 280.6 723.4 269 727.5 L 277.5 747 L 280.5 748 L 289.5 756 L 299.5 747 L 306 745 L 306 746.5 L 297.5 755 L 291 759.5 L 301 771.5 L 302 790.5 L 306 809.5 L 310 825.5 L 314.5 832 L 320.5 834 L 345.5 836 L 354.5 838 Q 362.1 839.8 366 845.5 Q 366.8 848.1 363.5 847 Q 342.6 837.4 311.5 838 Q 301.6 841.1 296 848.5 L 292 855.5 L 291 860.5 L 293.5 865 Q 299.4 867.6 309.5 866 L 312 865.5 L 313 857.5 L 319.5 848 Q 322.7 844.2 330.5 845 Q 333.2 846.3 331 847.5 Q 331.8 849.8 329.5 849 Q 322.9 849.9 320 854.5 L 318 858.5 Q 318.6 863.9 317 866 L 359.5 866 L 360.5 865 L 371.5 865 L 373 863.5 L 374 856 Q 378.9 854.2 377 860.5 L 378 866 L 386 866 L 386 853.5 L 388.5 849 Q 390.8 848.3 390 850.5 L 391 855.5 L 390 856.5 L 390 866 Q 397.1 867.7 399 863.5 L 400 849.5 L 399 845 L 387.5 839 L 384.5 839 L 374.5 844 Q 365.2 835.3 352.5 830 Q 346.8 826.8 336.5 828 L 330.5 830 L 325.5 830 L 327.5 827 L 335.5 824 L 347.5 824 Q 364.8 828.2 375.5 839 L 383.5 835 L 388.5 835 L 399.5 841 L 401 823.5 L 398.5 821 Q 385.9 818.1 376.5 812 L 363.5 808 L 355.5 807 Q 348.8 805.8 345 801.5 Q 344.2 798.9 347.5 800 L 360 805 L 356.5 800 Q 348.1 796.4 343 789.5 L 343.5 787 L 369.5 804 L 383.5 810 L 403.5 816 L 422.5 820 L 445.5 822 L 475.5 828 L 496.5 828 L 495.5 826 L 486.5 826 L 465.5 822 L 436.5 813 Q 418 804 405 789.5 Q 390.2 771.2 383 745.5 L 380 730.5 L 380 696.5 L 381 695.5 L 381 687.5 L 383 676.5 L 390 656.5 L 397 644 L 387.5 646 L 384 643.5 L 384 637.5 L 393 616.5 L 409.5 597 L 425.5 584 L 440 575.5 Q 440.9 572.5 436.5 574 Q 407.4 566.6 391 546.5 Q 373.9 523.1 365 491.5 L 359 457.5 L 358 424.5 L 361 423 L 363 455.5 L 371 496.5 Q 379.9 529.6 401.5 550 Q 411.7 559.8 425.5 566 L 440.5 571 L 450.5 572 L 456 571 L 453.5 575 Q 424.1 586.6 405 608.5 Q 392.8 621.3 388 641.5 L 389.5 641 L 397.5 640 L 404.5 637 L 406 639.5 L 400 646.5 L 389 672.5 L 386 683.5 L 386 688.5 L 384 695.5 L 384 707.5 L 383 708.5 L 384 709.5 L 384 727.5 L 385 728.5 L 386 740.5 L 392 760.5 Q 401.3 782.2 418.5 796 L 439.5 809 L 464.5 818 L 479.5 821 L 487.5 821 L 488.5 822 L 527.5 823 L 528.5 822 L 546.5 822 L 547.5 821 L 563.5 821 L 564.5 820 L 584.5 819 L 585.5 818 L 605.5 816 L 622.5 812 Q 654.9 800.9 675 777.5 Q 690 758 698 731.5 L 703 702.5 L 703 673.5 L 702 672.5 L 702 664.5 L 699 649.5 L 694 638.5 L 698.5 638 L 701.5 640 L 712 642 L 712 637.5 L 706 623.5 Q 695.8 606.3 680.5 594 L 656.5 578 L 645 574 L 645.5 572 L 654.5 572 Q 683.6 565.6 700 546.5 L 714 526.5 Q 722.4 510.4 728 491.5 L 733 470.5 L 735 450.5 L 736 449.5 L 737 423.5 L 738 422.5 L 738 400 L 753 392.5 L 751 365.5 L 745 339.5 L 757.5 331 L 766 322.5 L 774 306.5 L 774 287.5 L 771 273.5 L 763 255.5 L 746 233.5 L 743 219.5 Q 738.5 207.5 729.5 200 L 720 195 Q 719 191.2 721.5 190 Z M 811 228 L 790 234 Q 781 238 775 246 L 784 257 L 784 259 Q 781 258 782 261 Q 783 263 787 263 L 793 272 L 795 272 L 805 265 L 822 261 L 831 261 L 840 263 L 855 271 Q 866 279 869 297 L 868 300 L 860 285 Q 850 271 831 267 L 813 268 L 798 275 L 794 280 L 795 297 L 796 299 L 810 299 L 818 303 L 822 311 Q 823 317 821 321 L 816 325 Q 819 320 818 311 Q 812 300 793 303 L 791 305 L 788 318 L 784 325 L 803 331 L 808 331 L 822 327 Q 829 322 831 312 Q 833 299 829 293 Q 827 288 831 289 L 834 294 L 836 302 Q 837 314 832 322 L 823 330 L 812 334 L 797 334 L 788 330 L 782 330 L 781 333 L 784 360 L 795 364 L 809 367 L 826 367 Q 831 360 841 358 L 844 352 L 849 347 L 860 345 L 864 343 L 865 340 Q 868 336 876 337 Q 882 332 885 324 L 891 303 L 891 283 L 890 278 Q 886 264 878 255 Q 866 240 848 232 L 829 228 L 811 228 Z M 696 828 Q 680 834 669 844 L 659 839 L 644 845 L 643 852 Q 642 859 644 863 Q 646 867 655 866 L 659 859 Q 661 860 660 865 L 662 866 L 670 866 Q 669 857 671 852 L 674 853 L 674 866 L 723 866 L 726 865 Q 724 863 725 859 L 722 854 L 714 849 Q 709 847 713 845 Q 720 844 724 848 L 728 853 L 730 859 L 730 865 L 732 866 L 748 866 L 752 863 Q 751 853 746 848 Q 741 840 731 838 L 719 838 L 718 839 L 697 841 L 680 847 Q 676 848 677 845 L 686 839 L 705 835 L 718 835 L 720 834 L 712 829 L 696 828 Z "></path><path d="M 584.5 192 L 610.5 196 L 629.5 202 L 635.5 202 L 656.5 194 L 663.5 192 L 670 192 L 667.5 196 L 657.5 200 L 651.5 200 L 648.5 199 L 644.5 205 L 627.5 213 L 617.5 221 L 614 222 L 614 218.5 L 616 215 L 629 206.5 L 625.5 205 L 621.5 206 L 600.5 201 L 588.5 200 L 582 198 L 582 193 L 583.5 193 L 584.5 192 Z "></path><path d="M 219.5 224 L 241.5 224 L 253.5 227 Q 270.6 233.4 281.5 246 L 284.5 246 L 300.5 238 L 308 237 Q 308.8 242 305.5 244 L 295 247 L 295 248.5 L 309 262.5 L 310 266 Q 301.3 264.1 297 256.5 L 291.5 250 L 281 258.5 L 281 260.5 L 298 277.5 L 299 281 L 294.5 280 L 278.5 265 L 274.5 264 Q 260 278 262 308.5 L 265 322.5 L 270 336.5 Q 260.9 349.4 261 371.5 L 262 372.5 L 262 380.5 L 259 384.5 L 259 387.5 L 265 392.5 L 268 403 Q 264.2 404 263 401.5 L 257 388.5 L 254 376.5 L 254 371.5 L 252.5 370 L 241.5 371 L 240.5 372 L 219.5 372 Q 186.5 365.5 170 342.5 L 162 330.5 L 157 316.5 L 153.5 311 L 145.5 312 L 137 309 L 137 306 L 143.5 306 Q 145.3 308.8 151.5 307 L 153 305.5 L 153 292.5 L 152 288 L 146 284.5 L 147.5 282 L 151.5 283 L 155 277.5 L 157 268.5 L 163 256.5 L 178.5 240 Q 186.6 232.1 199.5 229 L 201 231.5 L 179.5 246 L 172 253.5 L 161 272.5 L 158 285.5 L 158 300.5 Q 163.5 334 185.5 351 Q 195.6 360.4 210.5 365 L 221.5 367 L 239.5 367 L 250.5 365 L 254 361.5 L 262 335.5 L 261 333 L 243.5 335 L 230.5 332 L 219 323.5 Q 211.7 316.3 214 299.5 L 215 294.5 L 218.5 289 L 220 291.5 L 218 300.5 L 218 308.5 L 222 320.5 L 227.5 326 Q 235.1 330.9 247.5 331 L 262 328 L 259 314.5 L 259 307.5 L 256.5 303 L 241.5 303 Q 235 304.5 232 309.5 L 231 314.5 L 233 324.5 L 229 321.5 L 228 319.5 L 228 308.5 L 230 304 L 240.5 299 L 254 299 L 255 296.5 L 257 279.5 L 252.5 275 L 240.5 269 L 230.5 267 L 219.5 267 L 208.5 270 L 200.5 274 L 191 282.5 L 181.5 300 Q 178.5 300.9 180 296.5 Q 183 281.5 192.5 273 Q 199.4 266.4 209.5 263 L 213.5 262 L 233.5 262 L 242.5 264 L 257.5 274 L 259.5 274 L 265 264 Q 274.2 260.5 280 252.5 L 281 247 L 275.5 246 Q 266.5 235 250.5 231 L 240.5 229 L 220.5 228 L 217 230.5 L 215.5 234 L 210.5 238 L 208.5 238 L 203 235 Q 200.9 229.8 205.5 231 L 209.5 233 L 219.5 224 Z "></path><path d="M 389.5 228 L 420.5 231 L 427 233.5 Q 428.5 237.9 425.5 237 L 420.5 235 L 408.5 234 L 407.5 233 L 387.5 232 L 384 233 L 385.5 230 L 389.5 228 Z "></path><path d="M 719.5 228 Q 731.7 226.8 737 232.5 L 733.5 233 L 732.5 232 L 724.5 232 L 715.5 234 L 705.5 234 L 699 236.5 L 700.5 238 L 716.5 239 L 726.5 242 Q 736.3 246.7 743 254.5 L 753 274.5 L 753 290.5 Q 749.7 306.2 739.5 315 Q 731.7 322.2 720.5 326 L 715.5 327 L 693.5 327 L 681.5 323 L 665 308.5 L 659 297.5 L 657 281.5 L 658 280.5 L 659 268.5 Q 663.9 257.4 672.5 250 Q 678.4 243.9 688.5 242 Q 691.5 243.5 688.5 245 Q 677.5 249 671 257.5 L 663 274 L 668.5 275 L 669.5 274 L 677.5 274 L 678.5 275 L 694.5 275 L 695.5 276 L 716.5 277 L 717.5 278 L 725.5 278 L 740.5 281 L 748 281 Q 746.1 261.2 732.5 252 L 717.5 244 L 702.5 242 L 695.5 237 L 656.5 237 L 652 236 L 652.5 234 L 660.5 234 L 661.5 233 L 695.5 232 L 696.5 231 L 704.5 231 L 719.5 228 Z M 662 279 L 664 296 L 671 308 Q 681 320 700 323 L 711 323 L 720 321 L 733 314 L 743 303 L 747 295 L 747 288 L 746 286 L 729 283 Q 729 293 724 299 L 717 306 L 705 310 Q 691 310 684 304 L 677 295 L 675 287 L 675 279 L 662 279 Z M 680 279 Q 678 291 684 298 Q 690 303 699 306 Q 710 307 716 301 Q 722 296 724 287 L 723 283 L 720 281 L 717 284 Q 717 290 714 293 L 706 297 Q 695 298 692 293 Q 687 290 686 284 L 686 279 L 680 279 Z "></path><path d="M 443.5 233 L 474.5 233 L 479 236 L 484 247.5 L 485 266.5 L 478 294.5 L 470 311.5 L 464.5 318 L 465 316.5 L 478 282.5 L 480 271.5 L 481 245.5 L 471.5 238 Q 465.2 239.7 463.5 237 L 439.5 237 L 433 235.5 L 434.5 234 L 442.5 234 L 443.5 233 Z "></path><path d="M 646.5 233 L 647 238.5 Q 637.2 245.7 640 265.5 L 645 290.5 L 656 316.5 L 652 313.5 Q 642.4 299.1 638 279.5 L 636 268.5 L 636 247.5 Q 637.9 238.4 644.5 234 L 646.5 233 Z "></path><path d="M 405.5 239 L 421.5 239 L 434.5 242 Q 447.1 247.4 455 257.5 Q 465.9 268.1 463 292.5 Q 459.1 308.6 447.5 317 L 431.5 326 L 421.5 328 L 409.5 328 Q 387.5 324 376 309.5 L 369 296.5 L 368 291.5 L 368 274.5 L 371 264.5 L 385.5 248 Q 393.5 241.5 405.5 239 Z M 408 243 L 400 245 L 385 254 L 381 258 L 374 272 L 373 282 L 381 280 L 387 280 L 394 278 L 403 278 L 411 276 L 419 276 L 420 275 L 457 274 L 456 269 L 449 258 Q 438 241 408 243 Z M 430 279 L 425 292 Q 422 296 417 297 L 411 297 L 405 295 L 397 286 Q 396 282 390 283 Q 389 291 393 296 Q 398 303 409 306 L 416 306 L 426 301 L 433 292 L 434 281 Q 433 278 430 279 Z M 439 279 L 438 292 L 432 302 Q 427 308 418 310 L 403 309 L 396 305 Q 386 299 385 284 L 373 287 L 373 292 L 376 300 L 383 310 L 395 318 L 411 323 Q 432 324 443 314 Q 455 305 459 287 L 458 284 Q 458 279 458 279 L 439 279 Z "></path><path d="M 619.5 243 Q 622.8 241.9 622 244.5 L 600 273.5 L 588.5 285 L 580.5 286 L 574 281.5 L 572 277.5 L 572 266 L 575 267.5 L 577 277.5 L 579.5 280 L 583.5 282 Q 591.7 278.7 596 271.5 Q 605.5 255 619.5 243 Z "></path><path d="M 502.5 245 L 540.5 281 L 545.5 282 L 552 277.5 Q 555.9 273 555 265 L 558 266.5 L 559 270.5 L 556 280.5 L 551.5 285 L 542.5 286 L 535.5 283 L 522 269.5 L 503 247.5 L 502.5 245 Z "></path><path d="M 573.5 300 L 587.5 301 L 596.5 303 Q 607.4 305.6 614 312.5 L 622 325.5 L 623 341.5 L 619.5 346 Q 610.9 352.1 595 350 Q 593.5 358.6 587.5 364 L 579 368.5 L 578 387.5 L 577 392 L 589.5 396 L 613.5 396 L 623 394 L 619 385.5 L 619 382.5 Q 621 379 623 383.5 L 627 392 L 639.5 389 L 659 381 Q 657 378 658 370.5 L 661 372.5 L 663.5 378 L 686.5 370 L 699.5 369 L 705 373.5 L 707 381.5 L 707 398.5 L 701 430.5 L 692 452.5 L 690 475.5 L 685 493.5 Q 676.5 515.5 660.5 530 L 643.5 539 L 623.5 544 L 618 547.5 L 609 570.5 L 613 583.5 L 614 601.5 Q 612.5 608 607.5 611 L 599.5 611 L 592 604.5 L 591 601.5 L 591 580.5 L 589.5 579 L 581.5 579 L 580 580.5 L 580 586.5 L 582 593.5 L 582 610.5 L 574.5 619 L 563.5 620 L 559.5 619 L 555 615.5 L 552 609.5 L 551 596.5 L 554 578 L 549 577 L 548 584.5 L 544.5 589 L 535.5 590 L 530 586.5 Q 525.1 578.9 527 564.5 Q 529.8 562.8 528 556.5 L 522.5 543 L 511.5 541 L 489.5 534 Q 472.4 527.1 461 514.5 Q 442.5 494.7 441 459 Q 451.6 460.3 455 453.5 L 462.5 444 L 471.5 440 L 486.5 439 L 490.5 440 L 495 444.5 Q 498.3 449.4 497 458 L 461.5 467 L 453.5 468 L 447.5 460 L 445 461.5 Q 448.3 499.2 470.5 518 L 479.5 525 L 508.5 535 L 522 537 L 523 530.5 L 523 511 L 504.5 505 L 499 501.5 L 500.5 501 L 506 502 L 506.5 495 L 510.5 502 Q 518.9 502.6 523 507.5 Q 522.3 509.8 524.5 509 L 526 507.5 L 526 497.5 L 530.5 490 Q 534.3 488.8 533 492.5 L 527 510.5 L 527 529.5 L 531 551.5 Q 534.8 562.2 543.5 568 L 550.5 572 L 560.5 574 L 588.5 574 Q 600.1 571.6 606 563.5 L 610 555.5 L 613 543.5 L 614 513.5 L 613 512.5 L 613 500.5 L 611 489.5 Q 608.2 478.3 601.5 471 L 593.5 468 L 587.5 468 Q 586.3 465.8 581.5 467 L 578.5 465 L 574.5 465 L 565 471.5 L 573 495.5 Q 571.3 501.8 574 503.5 L 574 535.5 L 573 539 Q 569.5 540.1 571 532.5 L 570 531.5 L 570 498.5 L 569 493.5 L 564 479.5 L 557.5 470 L 546.5 468 L 522.5 468 L 515 474.5 L 508.5 489 L 508 484.5 Q 510.9 474.9 517.5 469 L 525 464.5 L 520 458.5 L 520 454.5 L 521 454.5 L 524.5 460 L 535.5 464 L 539 461.5 L 539 451.5 L 540.5 450 L 542 452.5 L 543 464 L 549.5 464 L 550.5 465 L 564.5 465 L 569 461.5 L 571 457.5 L 571 433.5 L 572 430 Q 576 431.4 574 424.5 Q 569.5 421 570 412.5 L 574.5 406 L 576 406.5 L 576 417.5 L 577 418.5 L 577 426.5 L 576 427.5 L 576 452.5 Q 578.5 454 577 459.5 L 578.5 461 L 586.5 464 L 589 460.5 L 589.5 447 L 592 452.5 Q 591.3 459.5 593 463 Q 596.9 465.9 605.5 465 L 607 463.5 L 607 452.5 L 608.5 451 L 612 463 L 615.5 463 L 620 459.5 L 622 454.5 L 623 443.5 L 626 439.5 L 626 436.5 Q 621.8 427.9 622 416 L 599.5 416 L 594.5 415 L 584.5 411 Q 581.7 405.7 576 405 L 576 401 L 574.5 401 Q 571.3 402.2 572 406 L 555.5 415 L 522 416 L 522 435.5 L 520.5 439 L 516 429.5 L 515 414.5 L 512.5 411 L 496.5 406 L 474 395 L 474 416.5 L 473 419 Q 466.6 420 463.5 426 L 458.5 426 L 458.5 425 Q 464.3 425.8 465 421.5 L 467 416.5 L 467 393.5 L 464.5 390 L 450.5 384 L 436 383 L 435 385.5 L 434 396.5 L 435 397.5 L 436 415.5 L 438.5 419 L 444.5 422 L 450 422 Q 452 419 451 411.5 L 452.5 409 L 454 410.5 L 455 420.5 L 452.5 425 L 444.5 427 L 440 430.5 L 439 437.5 Q 443.3 442.7 444 451.5 L 442 450.5 L 442 447.5 L 436 436.5 L 432 422.5 L 429 388.5 L 430 387.5 L 430 377.5 L 434.5 370 Q 439.2 367.8 447.5 369 L 459.5 372 L 478.5 380 L 486.5 361 L 488 361.5 L 488 368.5 L 483 380.5 L 489.5 384 L 513.5 392 L 525 394 Q 523.6 386.3 526.5 382 L 528 383.5 L 529 393.5 L 530.5 395 L 537.5 397 L 548.5 397 L 549.5 396 L 558.5 396 L 566.5 394 L 573 390.5 L 574 371.5 L 573 367 L 565 363 L 559 354.5 L 558 350 L 538.5 350 L 533.5 349 L 528.5 347 L 525 343.5 Q 521.7 338.8 523 329.5 Q 526.7 316.7 536.5 310 L 548.5 304 L 561.5 301 L 572.5 301 L 573.5 300 Z M 570 305 L 554 308 L 541 314 Q 532 320 528 331 L 529 340 L 536 344 Q 540 343 542 345 L 561 345 L 567 357 L 575 362 L 582 362 L 585 360 L 588 356 L 591 345 L 607 345 L 616 343 L 619 336 L 618 330 L 611 318 L 605 312 L 592 307 L 581 305 L 570 305 Z M 437 373 Q 433 374 434 379 L 438 378 L 446 378 L 459 382 L 504 403 L 522 409 L 533 411 L 548 411 L 553 410 L 570 402 L 574 398 L 573 396 L 557 401 L 537 401 L 521 398 L 488 388 L 452 374 L 437 373 Z M 690 373 Q 664 381 642 393 L 610 401 L 595 401 L 581 397 L 575 398 L 580 402 L 596 410 L 620 410 L 624 409 L 641 403 L 667 390 L 667 392 L 659 399 L 632 412 L 629 417 L 629 426 L 630 427 L 631 439 L 639 442 L 646 442 L 646 443 L 646 498 L 636 505 L 637 509 L 637 517 L 635 517 L 631 507 L 625 507 L 619 509 L 619 538 L 621 539 L 631 538 L 653 529 L 657 525 L 661 525 L 676 505 L 685 477 L 688 453 L 690 445 L 680 445 L 678 447 L 678 463 L 680 464 L 682 463 L 678 474 L 669 481 L 659 492 L 661 496 L 661 504 L 660 505 Q 661 507 658 506 L 658 493 L 657 490 Q 664 480 674 475 L 674 466 L 675 465 L 675 446 L 676 443 L 691 441 Q 695 438 696 432 L 695 427 L 690 420 Q 689 412 692 413 L 694 420 L 697 421 L 699 418 L 701 407 L 701 399 L 702 398 L 702 386 L 700 383 L 691 383 L 678 389 L 673 395 L 673 416 L 676 423 Q 677 426 682 425 L 682 426 L 676 425 L 670 418 L 666 433 Q 662 440 653 441 L 651 442 L 660 436 Q 665 433 667 426 L 667 409 Q 670 407 668 401 L 671 395 L 671 388 L 677 383 L 692 378 L 703 378 L 703 375 Q 700 371 690 373 Z M 629 442 Q 625 446 626 455 L 622 464 L 618 467 L 609 468 L 607 470 L 614 486 L 617 503 L 619 504 Q 632 503 641 496 L 643 496 L 643 447 L 642 445 L 634 445 L 629 442 Z M 471 443 L 464 447 L 456 456 Q 453 458 454 464 L 462 464 L 486 459 L 495 455 L 492 447 L 488 443 L 471 443 Z M 531 563 L 532 580 L 537 586 L 542 585 Q 546 583 545 577 L 540 572 L 533 565 Q 534 562 531 563 Z M 605 572 Q 601 577 595 577 L 595 596 L 597 604 Q 599 608 606 607 L 609 603 L 610 598 L 608 580 L 605 572 Z M 561 579 L 558 582 L 556 593 L 556 608 L 558 612 L 565 616 L 573 615 Q 577 612 578 607 L 578 598 L 576 591 L 576 586 L 574 580 Q 570 578 561 579 Z "></path><path d="M 196.5 303 Q 198.8 302.3 198 304.5 L 199 305.5 L 199 314.5 L 201 320.5 L 209.5 330 L 215 333.5 Q 214 336 209.5 335 L 200 327.5 L 194 314.5 L 194 307.5 L 196.5 303 Z "></path><path d="M 851 303 L 854 304.5 Q 856.5 308 855 315.5 Q 852.9 327.9 843.5 333 Q 840.8 335.8 834.5 335 L 835 333.5 Q 834.3 331.3 836.5 332 L 847 322.5 L 850 317.5 L 851 303 Z "></path><path d="M 313.5 334 Q 326.8 331.7 330 339.5 Q 333 342.5 332 349.5 L 327.5 357 L 320.5 360 L 316.5 360 Q 310 358.5 307 353.5 L 305 344.5 Q 306.5 338 311.5 335 L 313.5 334 Z M 316 338 L 314 339 L 309 345 L 310 352 L 317 356 Q 322 357 325 354 L 328 350 L 327 342 Q 325 336 316 338 Z "></path><path d="M 456.5 336 Q 459.1 335.2 458 338.5 L 447.5 348 L 428.5 357 L 422 363.5 L 415 374.5 L 413 397 Q 410 398.3 411 394.5 Q 407.4 389.1 409 378.5 Q 410.8 368.8 416.5 363 L 423 358.5 L 422.5 357 L 406.5 357 L 392.5 353 L 381 346.5 L 383.5 345 L 400.5 351 L 422.5 352 L 437.5 348 L 456.5 336 Z "></path><path d="M 663.5 336 Q 674.7 345.8 690.5 351 Q 695.3 349.8 696.5 352 L 714.5 352 L 737.5 346 L 734.5 350 L 718.5 356 L 714 356 L 716.5 360 L 722 364.5 Q 728.4 373.6 726 391.5 L 724.5 395 L 722 388.5 L 722 379.5 L 720 371.5 L 709.5 358 L 694.5 357 L 684.5 354 Q 672.3 349.2 664 340.5 L 663.5 336 Z "></path><path d="M 334.5 360 Q 342.1 358.9 344 363.5 L 345 369.5 L 341.5 374 L 334.5 375 L 330 371.5 L 329 365.5 L 332.5 361 L 334.5 360 Z "></path><path d="M 309.5 367 L 313.5 367 L 321 372.5 L 322 378.5 L 316.5 386 L 307.5 387 L 303 383.5 L 302 373.5 L 305.5 369 L 309.5 367 Z "></path><path d="M 869.5 376 Q 889.5 374.5 896 386.5 L 899 406.5 L 895 412.5 Q 894.7 419 892 422 L 880 430.5 L 883 444.5 L 883 452.5 Q 881.8 460.3 876.5 464 Q 873.6 466.6 867.5 466 Q 864.5 464.5 867.5 463 L 875 458.5 L 878 449.5 L 878 441.5 L 877 440.5 L 877 432.5 L 874.5 430 L 864 428 L 865.5 425 L 878.5 426 L 888 418.5 L 895 404.5 L 892 393.5 L 885.5 385 L 872.5 382 L 865 387.5 L 863 401.5 L 856.5 415 L 855 413.5 L 855 403.5 L 857 399.5 L 858 386.5 L 862.5 379 L 869.5 376 Z "></path><path d="M 85.5 396 L 101.5 397 L 116 403.5 L 117.5 406 L 132.5 409 L 146.5 420 L 158.5 420 L 160.5 419 L 162 421.5 L 158.5 424 Q 152 423 150 426.5 Q 146.3 434.8 148 448.5 L 151 454 L 161 459.5 Q 159.5 462.5 153.5 461 L 146 455.5 L 143 449.5 L 143 433.5 Q 145.7 431.7 144 425.5 L 132.5 416 L 121.5 412 L 107.5 404 L 94.5 400 L 88.5 400 L 79 405.5 Q 74.8 409.8 75 418.5 Q 76.7 425.3 82 428.5 L 79.5 429 L 72 424.5 L 71 413.5 L 74 404.5 L 79.5 399 L 85.5 396 Z "></path><path d="M 929.5 400 L 944.5 402 L 952 408.5 L 956 418.5 L 956 425.5 L 953 433.5 L 962.5 438 L 970 444.5 Q 974.6 450.4 973 462.5 Q 971.4 471.4 964.5 475 L 954 479.5 L 956.5 483 Q 958.8 482.3 958 484.5 Q 964.4 489.1 963 501.5 Q 960.5 510.5 953.5 515 L 948.5 517 L 934.5 518 Q 932.8 515.3 926.5 517 L 920 513.5 L 918.5 511 L 916.5 513 L 906.5 513 L 898.5 516 Q 895.8 514.8 898 513.5 Q 896.9 510.2 899.5 511 Q 905.3 507.3 916.5 509 L 917.5 510 L 946.5 511 L 954 505.5 Q 957.5 501.5 956 492.5 L 950.5 486 L 943.5 483 L 919.5 483 L 918.5 484 L 906.5 484 L 905 485.5 Q 905.8 490.3 903.5 492 L 901 454.5 L 895 429.5 L 898 431.5 L 902 443.5 L 904.5 446 L 908.5 444 L 938.5 438 L 947 429.5 Q 950.8 426.3 949 417.5 L 943.5 409 Q 939.2 405.8 931.5 406 L 914.5 411 L 898 418 L 899.5 415 L 909.5 408 Q 911.8 405.3 917.5 406 L 919.5 407 Q 922.7 401.7 929.5 400 Z M 944 441 L 932 445 L 914 447 L 905 451 L 905 466 L 906 467 L 906 478 L 907 480 L 925 479 L 938 476 L 943 476 L 954 473 L 962 469 Q 966 466 967 460 L 966 452 L 964 448 L 957 442 L 944 441 Z "></path><path d="M 230.5 404 L 237 405 L 235.5 409 Q 229.8 408.3 229 412.5 L 219 427.5 L 219 430 L 221.5 429 L 222 431 Q 210.8 432.9 205 428.5 L 205.5 427 L 209 428 L 206 422.5 L 206 418.5 L 209 417 Q 207.8 423.5 211.5 426 Q 218.8 427.3 220 422.5 L 227 407.5 L 230.5 404 Z "></path><path d="M 271.5 407 Q 289.5 430.7 326 435 L 325.5 437 L 314.5 437 L 295.5 432 L 287.5 428 L 270.5 414 L 268.5 414 L 255 429.5 L 254 434 L 244.5 435 L 243.5 434 L 229.5 433 L 228 431.5 L 227 427.5 Q 228 425 232.5 426 L 233.5 427 L 251.5 427 L 256 428 Q 256 415.2 263.5 409 L 271.5 407 Z "></path><path d="M 129 422 L 132 423.5 L 125 452.5 L 125 460.5 L 124 461.5 L 124 488.5 L 125 494 Q 122.3 495.1 123 492.5 Q 119.6 487.7 120 480 L 117.5 479 L 89.5 477 L 79.5 472 L 69.5 472 L 58 467 L 54 458.5 L 54 445.5 L 59.5 436 L 69.5 431 L 75 431 L 75.5 433 L 82.5 433 Q 83.3 430.3 87.5 431 L 94.5 434 L 98.5 434 L 102.5 436 L 121.5 440 L 129 422 Z M 73 435 L 66 438 Q 60 441 58 449 L 59 460 Q 65 468 77 470 L 92 471 L 107 474 L 118 474 L 119 472 L 120 449 L 121 445 L 98 439 L 73 435 Z "></path><path d="M 400.5 428 L 402 429.5 L 405 454.5 L 412 474.5 Q 418.2 488.8 429 498.5 L 430 502 L 426.5 502 L 419 494.5 Q 409.8 481.7 404 465.5 L 400 445.5 L 399 429.5 L 400.5 428 Z "></path><path d="M 262 429 L 281.5 438 L 288 444.5 L 297 460.5 L 300 470.5 L 300 475.5 L 298 476.5 L 292 460.5 L 283 448.5 L 280 441 Q 269 439.5 261 435 L 262 429 Z "></path><path d="M 723 438 L 725 438.5 L 725 452.5 L 724 453.5 L 723 467.5 L 719 480.5 Q 713 495 701.5 504 L 699.5 505 L 700 503.5 Q 710.8 489.3 718 471.5 L 722 454.5 L 722 444.5 L 723 438 Z "></path><path d="M 775 460 L 781 464.5 L 788 482 Q 790.7 483.1 790 480.5 L 793 470 Q 796 468.8 795 472.5 L 796 474.5 L 794 482.5 L 791 487.5 L 791 516.5 Q 788.3 518.3 790 524.5 L 788.5 526 L 787 517.5 L 787 499.5 L 786 498.5 L 785 487.5 Q 781.5 471.8 775 460 Z "></path><path d="M 496.5 476 L 498 476.5 L 498 485.5 L 495 497.5 L 491 502.5 Q 492 509.5 489.5 513 Q 484.9 509.6 487 499.5 L 483.5 496 Q 473.6 491.4 467 483.5 L 468.5 482 L 477.5 482 L 490.5 479 L 496.5 476 Z M 491 481 L 478 485 Q 475 484 476 487 L 492 496 L 494 494 L 495 483 Q 494 480 491 481 Z "></path><path d="M 766.5 519 Q 772.6 517.8 772 520.5 Q 752.6 529 728 531 Q 726.3 526.9 730.5 528 L 734.5 526 L 761.5 521 L 766.5 519 Z "></path><path d="M 335.5 546 L 341.5 546 L 350 552.5 Q 352.7 554.8 352 560.5 Q 350.8 566.3 346.5 569 Q 342.8 572.3 334.5 571 L 329 566.5 L 327 560.5 L 329 552.5 L 333.5 547 L 335.5 546 Z M 337 550 L 333 552 L 329 557 Q 328 562 331 564 L 336 567 L 345 566 L 348 561 L 347 555 Q 345 549 337 550 Z "></path><path d="M 357.5 575 Q 366.9 573.6 369 579.5 Q 370.5 588.5 365.5 591 L 357.5 592 L 353 588.5 L 352 580.5 L 355.5 576 L 357.5 575 Z "></path><path d="M 527.5 629 Q 535.5 627.5 537 632.5 Q 538.5 639.5 534.5 641 L 527.5 642 L 525 641 Q 523.3 638.6 524 632.5 L 525 630 L 527.5 629 Z "></path><path d="M 516.5 646 L 519.5 646 L 526 650.5 L 527 658.5 L 523.5 663 L 516.5 665 L 510 659.5 L 509 653.5 L 514.5 647 L 516.5 646 Z "></path><path d="M 430.5 665 Q 433.1 664.2 432 667.5 Q 419 685.5 402.5 700 Q 400.3 700.8 401 698.5 Q 413.6 679.6 430.5 665 Z "></path><path d="M 581.5 665 L 588.5 665 L 589.5 666 L 602.5 667 L 608.5 669 L 626 671 L 624.5 675 L 601.5 672 L 595.5 670 L 589.5 670 L 580 666.5 L 581.5 665 Z "></path><path d="M 445.5 666 L 446 669.5 L 413.5 715 L 410 716 L 414 707.5 L 445.5 666 Z "></path><path d="M 574.5 681 L 621.5 683 L 633 685 Q 634.1 687.7 631.5 687 Q 630 689.5 624.5 688 L 623.5 687 L 583.5 686 L 573 684 L 574.5 681 Z "></path><path d="M 722.5 715 Q 733.6 713.4 736 720.5 Q 738.5 724 737 731.5 L 732.5 737 Q 729 739.5 721.5 738 L 714 733.5 L 712 725.5 L 716.5 718 L 722.5 715 Z M 725 716 L 722 717 L 716 725 Q 715 732 719 735 L 723 737 Q 729 738 732 735 L 736 730 L 735 723 Q 732 717 725 716 Z "></path><path d="M 490 735 L 494 737.5 L 520 782.5 L 526 797 Q 523.3 798.1 524 795.5 L 495 747.5 L 490 735 Z "></path><path d="M 480 741 L 483 742.5 L 495 759.5 L 505 778.5 Q 503 782 501 777.5 L 485 753.5 L 480 744.5 L 480 741 Z "></path><path d="M 714.5 741 Q 720.1 741.5 722 745.5 L 723 752.5 L 722 755 L 718.5 757 L 713.5 757 Q 707.3 755.3 709 745.5 L 714.5 741 Z "></path><path d="M 714.5 799 Q 725 797 727 803.5 L 727 810.5 L 724 818 L 721.5 819 L 720 815.5 L 722 813.5 L 722 804.5 Q 721 802 716.5 803 Q 712.9 805.1 713 810 L 720 808 Q 720.8 811.8 717.5 813 L 713.5 815 L 710 812.5 L 709 806.5 L 712 800 L 714.5 799 Z "></path><path d="M 640.5 907 Q 645.6 906.4 647 909.5 Q 645.6 916.9 649 919.5 L 645.5 925 L 637 926 L 637 910.5 L 638 908 L 640.5 907 Z "></path><path d="M 437.5 911 Q 442.3 910.3 443 913.5 L 444 920.5 L 441.5 925 L 435 926 Q 436 929.8 433.5 931 L 432 929.5 L 432 915.5 L 433 912 L 437.5 911 Z "></path><path d="M 484.5 911 Q 490.8 909.8 492 913.5 L 492 923.5 L 490.5 925 L 484.5 926 L 482 925 Q 479.3 922.4 480 915.5 L 482 912 L 484.5 911 Z "></path></svg>